<svg width="34" height="33" viewBox="0 0 34 33" fill="none" xmlns="http://www.w3.org/2000/svg">
<path fill-rule="evenodd" clip-rule="evenodd" d="M16.5613 0C25.7078 0 33.1226 7.26282 33.1226 16.2219C33.1226 25.181 25.7078 32.4438 16.5613 32.4438C7.41474 32.4438 0 25.181 0 16.2219C0 7.26282 7.41474 0 16.5613 0ZM20.6308 20.9297L21.985 19.6372C22.0796 19.5469 22.2309 19.5505 22.3212 19.6451L25.5181 22.9947C25.6084 23.0893 25.6048 23.2406 25.5102 23.3309L24.156 24.6234C24.0614 24.7137 23.9102 24.7102 23.8199 24.6156L20.6229 21.2659C20.5326 21.1713 20.5362 21.02 20.6308 20.9297ZM8.33156 18.1231L8.29095 7.72783L7.66985 7.67473L7.63822 18.765C8.49234 18.9711 12.673 18.8489 13.8122 18.8305L13.7245 18.231C13.1103 17.9624 9.38807 18.1606 8.33156 18.1231ZM10.3964 16.3997L11.3023 14.2491C11.7204 14.5878 12.2535 15.2262 12.6795 15.4088L14.0058 12.9959C14.5548 13.2561 14.4691 13.4371 14.8538 13.7972C15.1496 13.7139 15.5966 13.3955 15.8686 13.1866C16.2012 12.9311 16.3459 12.6904 16.4797 12.207L16.9932 11.0629L17.8734 11.3578L17.5864 8.72547C17.3007 8.72933 15.6059 9.87315 15.3958 10.4004L16.1637 10.6812L15.2661 12.8821C14.6126 12.3725 14.509 11.9283 13.8874 11.5007L12.4835 14.0322C11.8743 13.7316 11.567 13.0031 11.0168 12.816C10.7143 13.3506 9.48658 15.9823 9.44429 16.5216C10.1697 16.8186 9.95475 16.9255 10.3964 16.3997ZM15.339 17.6082C15.0663 15.8797 16.3706 14.4636 17.8684 14.2885C19.6445 14.0809 21.0148 15.3327 21.162 16.8798C21.5277 20.7262 15.9228 21.3092 15.339 17.6082ZM15.1111 19.9618C15.6084 20.1637 16.4812 21.5464 18.8407 21.2483C20.2836 21.066 21.3445 20.0921 21.8468 19.1701C23.3818 16.3521 21.4094 13.5218 18.7651 13.1229C16.7518 12.9373 15.3745 13.9293 14.6795 15.139C14.2596 15.8699 14.0545 16.7271 14.1719 17.71C14.2917 18.7123 14.7898 19.2656 15.1111 19.9618Z" fill="black"/>
</svg>
